<?xml version="1.0" encoding="UTF-8"?>
<svg width="37px" height="28px" viewBox="0 0 37 28" version="1.1" xmlns="http://www.w3.org/2000/svg" xmlns:xlink="http://www.w3.org/1999/xlink">
    <!-- Generator: Sketch 52.6 (67491) - http://www.bohemiancoding.com/sketch -->
    <title>Group 2</title>
    <desc>Created with Sketch.</desc>
    <g id="Page-2" stroke-width="1">
        <g id="input-file" transform="translate(-297.000000, -263.000000)">
            <g id="Group-2" transform="translate(297.000000, 263.000000)">
                <path d="M2,3 L35,3 C36.1045695,3 37,3.8954305 37,5 L37,26 C37,27.1045695 36.1045695,28 35,28 L2,28 C0.8954305,28 1.3527075e-16,27.1045695 0,26 L0,5 C-1.3527075e-16,3.8954305 0.8954305,3 2,3 Z M18.5,24 C23.1944204,24 27,20.1944204 27,15.5 C27,10.8055796 23.1944204,7 18.5,7 C13.8055796,7 10,10.8055796 10,15.5 C10,20.1944204 13.8055796,24 18.5,24 Z M31,11 C32.1045695,11 33,10.1045695 33,9 C33,7.8954305 32.1045695,7 31,7 C29.8954305,7 29,7.8954305 29,9 C29,10.1045695 29.8954305,11 31,11 Z" id="Combined-Shape"></path>
                <circle id="Oval" cx="18.5" cy="15.5" r="4.5"></circle>
                <path d="M12,0 L25,0 C25.5522847,-1.01453063e-16 26,0.44771525 26,1 L26,3 L11,3 L11,1 C11,0.44771525 11.4477153,1.01453063e-16 12,0 Z" id="Rectangle"></path>
                <path d="M30,0 L32,0 C32.5522847,-1.01453063e-16 33,0.44771525 33,1 L33,3 L29,3 L29,1 C29,0.44771525 29.4477153,1.01453063e-16 30,0 Z" id="Rectangle-Copy-3"></path>
            </g>
        </g>
    </g>
</svg>
