<svg xmlns="http://www.w3.org/2000/svg" xmlns:xlink="http://www.w3.org/1999/xlink"><defs><style>
    .sprite-symbol-usage {display: none;}
    .sprite-symbol-usage:target {display: inline;}
  </style><symbol viewBox="0 0 37 28" id="camera-icon"><path d="M2 3h33a2 2 0 012 2v21a2 2 0 01-2 2H2a2 2 0 01-2-2V5a2 2 0 012-2zm16.5 21a8.5 8.5 0 100-17 8.5 8.5 0 000 17zM31 11a2 2 0 100-4 2 2 0 000 4z" /><circle cx="18.5" cy="15.5" r="4.5" /><path d="M12 0h13a1 1 0 011 1v2H11V1a1 1 0 011-1zm18 0h2a1 1 0 011 1v2h-4V1a1 1 0 011-1z" /></symbol></defs><use id="camera-icon-usage" xlink:href="#camera-icon" class="sprite-symbol-usage" /></svg>